<mxfile host="65bd71144e">
    <diagram id="diluZy8f31zxYQ0Wv3kR" name="Publish message">
        <mxGraphModel dx="746" dy="433" grid="1" gridSize="10" guides="0" tooltips="1" connect="1" arrows="1" fold="1" page="1" pageScale="1" pageWidth="850" pageHeight="1100" math="0" shadow="0">
            <root>
                <mxCell id="0"/>
                <mxCell id="1" parent="0"/>
                <mxCell id="3" value="FastAPI" style="shape=umlLifeline;perimeter=lifelinePerimeter;whiteSpace=wrap;html=1;container=1;dropTarget=0;collapsible=0;recursiveResize=0;outlineConnect=0;portConstraint=eastwest;newEdgeStyle={&quot;curved&quot;:0,&quot;rounded&quot;:0};fillColor=#6d8764;strokeColor=#3A5431;fontColor=#ffffff;" parent="1" vertex="1">
                    <mxGeometry x="270" y="70" width="100" height="390" as="geometry"/>
                </mxCell>
                <mxCell id="4" value="Database" style="shape=umlLifeline;perimeter=lifelinePerimeter;whiteSpace=wrap;html=1;container=1;dropTarget=0;collapsible=0;recursiveResize=0;outlineConnect=0;portConstraint=eastwest;newEdgeStyle={&quot;curved&quot;:0,&quot;rounded&quot;:0};fillColor=#1ba1e2;fontColor=#ffffff;strokeColor=#006EAF;" parent="1" vertex="1">
                    <mxGeometry x="410" y="70" width="100" height="390" as="geometry"/>
                </mxCell>
                <mxCell id="5" value="Pubsub" style="shape=umlLifeline;perimeter=lifelinePerimeter;whiteSpace=wrap;html=1;container=1;dropTarget=0;collapsible=0;recursiveResize=0;outlineConnect=0;portConstraint=eastwest;newEdgeStyle={&quot;curved&quot;:0,&quot;rounded&quot;:0};fillColor=#fa6800;strokeColor=#C73500;fontColor=#000000;" parent="1" vertex="1">
                    <mxGeometry x="550" y="70" width="100" height="390" as="geometry"/>
                </mxCell>
                <mxCell id="6" value="Deepseek" style="shape=umlLifeline;perimeter=lifelinePerimeter;whiteSpace=wrap;html=1;container=1;dropTarget=0;collapsible=0;recursiveResize=0;outlineConnect=0;portConstraint=eastwest;newEdgeStyle={&quot;curved&quot;:0,&quot;rounded&quot;:0};fillColor=#76608a;fontColor=#ffffff;strokeColor=#432D57;" parent="1" vertex="1">
                    <mxGeometry x="680" y="70" width="100" height="390" as="geometry"/>
                </mxCell>
                <mxCell id="8" style="edgeStyle=none;html=1;fillColor=#0050ef;strokeColor=#001DBC;strokeWidth=2;" parent="1" edge="1">
                    <mxGeometry relative="1" as="geometry">
                        <mxPoint x="140" y="154" as="sourcePoint"/>
                        <mxPoint x="319.5" y="154" as="targetPoint"/>
                    </mxGeometry>
                </mxCell>
                <mxCell id="19" value="&amp;nbsp;user + message" style="edgeLabel;html=1;align=center;verticalAlign=middle;resizable=0;points=[];" parent="8" vertex="1" connectable="0">
                    <mxGeometry x="0.0139" y="-3" relative="1" as="geometry">
                        <mxPoint y="-4" as="offset"/>
                    </mxGeometry>
                </mxCell>
                <mxCell id="7" value="" style="verticalLabelPosition=bottom;html=1;verticalAlign=top;align=center;strokeColor=none;fillColor=#00BEF2;shape=mxgraph.azure.user;" parent="1" vertex="1">
                    <mxGeometry x="110" y="70" width="60" height="50" as="geometry"/>
                </mxCell>
                <mxCell id="9" style="edgeStyle=none;html=1;exitX=0.983;exitY=0.72;exitDx=0;exitDy=0;exitPerimeter=0;fillColor=#0050ef;strokeColor=#001DBC;strokeWidth=2;" parent="1" edge="1">
                    <mxGeometry relative="1" as="geometry">
                        <mxPoint x="320" y="180" as="sourcePoint"/>
                        <mxPoint x="460" y="180" as="targetPoint"/>
                    </mxGeometry>
                </mxCell>
                <mxCell id="11" value="&amp;nbsp;ID + Data&amp;nbsp;" style="edgeLabel;html=1;align=center;verticalAlign=middle;resizable=0;points=[];" parent="9" vertex="1" connectable="0">
                    <mxGeometry x="-0.2429" y="1" relative="1" as="geometry">
                        <mxPoint x="17" as="offset"/>
                    </mxGeometry>
                </mxCell>
                <mxCell id="10" style="edgeStyle=none;html=1;fillColor=#0050ef;strokeColor=#001DBC;strokeWidth=2;" parent="1" edge="1">
                    <mxGeometry relative="1" as="geometry">
                        <mxPoint x="459.5" y="210" as="sourcePoint"/>
                        <mxPoint x="320" y="210" as="targetPoint"/>
                    </mxGeometry>
                </mxCell>
                <mxCell id="12" value="OK" style="edgeLabel;html=1;align=center;verticalAlign=middle;resizable=0;points=[];" parent="10" vertex="1" connectable="0">
                    <mxGeometry x="0.5125" y="1" relative="1" as="geometry">
                        <mxPoint x="36" as="offset"/>
                    </mxGeometry>
                </mxCell>
                <mxCell id="14" style="edgeStyle=none;html=1;exitX=0.983;exitY=0.72;exitDx=0;exitDy=0;exitPerimeter=0;fillColor=#0050ef;strokeColor=#001DBC;strokeWidth=2;" parent="1" target="5" edge="1">
                    <mxGeometry relative="1" as="geometry">
                        <mxPoint x="320" y="240" as="sourcePoint"/>
                        <mxPoint x="460" y="240" as="targetPoint"/>
                    </mxGeometry>
                </mxCell>
                <mxCell id="15" value="&amp;nbsp;ID to queue&amp;nbsp;" style="edgeLabel;html=1;align=center;verticalAlign=middle;resizable=0;points=[];" parent="14" vertex="1" connectable="0">
                    <mxGeometry x="-0.2429" y="1" relative="1" as="geometry">
                        <mxPoint x="94" as="offset"/>
                    </mxGeometry>
                </mxCell>
                <mxCell id="16" style="edgeStyle=none;html=1;exitX=0.983;exitY=0.72;exitDx=0;exitDy=0;exitPerimeter=0;fillColor=#0050ef;strokeColor=#001DBC;strokeWidth=2;" parent="1" edge="1">
                    <mxGeometry relative="1" as="geometry">
                        <mxPoint x="320" y="260" as="sourcePoint"/>
                        <mxPoint x="140" y="260" as="targetPoint"/>
                    </mxGeometry>
                </mxCell>
                <mxCell id="17" value="&amp;nbsp;OK&amp;nbsp;" style="edgeLabel;html=1;align=center;verticalAlign=middle;resizable=0;points=[];" parent="16" vertex="1" connectable="0">
                    <mxGeometry x="-0.2429" y="1" relative="1" as="geometry">
                        <mxPoint x="-16" as="offset"/>
                    </mxGeometry>
                </mxCell>
                <mxCell id="18" style="edgeStyle=none;html=1;exitX=0.5;exitY=1;exitDx=0;exitDy=0;exitPerimeter=0;fillColor=#0050ef;strokeColor=#001DBC;strokeWidth=2;" parent="1" source="7" edge="1">
                    <mxGeometry relative="1" as="geometry">
                        <mxPoint x="150" y="170" as="sourcePoint"/>
                        <mxPoint x="140" y="310" as="targetPoint"/>
                    </mxGeometry>
                </mxCell>
                <mxCell id="16NEeApMlGZPxUQGinHy-19" style="edgeStyle=none;html=1;fillColor=#fa6800;strokeColor=#C73500;strokeWidth=2;" parent="1" edge="1">
                    <mxGeometry relative="1" as="geometry">
                        <mxPoint x="600" y="300" as="sourcePoint"/>
                        <mxPoint x="320" y="300" as="targetPoint"/>
                    </mxGeometry>
                </mxCell>
                <mxCell id="16NEeApMlGZPxUQGinHy-20" value="&amp;nbsp;Next ID" style="edgeLabel;html=1;align=center;verticalAlign=middle;resizable=0;points=[];" parent="16NEeApMlGZPxUQGinHy-19" vertex="1" connectable="0">
                    <mxGeometry x="-0.2429" y="1" relative="1" as="geometry">
                        <mxPoint x="26" y="-1" as="offset"/>
                    </mxGeometry>
                </mxCell>
                <mxCell id="16NEeApMlGZPxUQGinHy-21" style="edgeStyle=none;html=1;exitX=0.983;exitY=0.72;exitDx=0;exitDy=0;exitPerimeter=0;fillColor=#fa6800;strokeColor=#C73500;strokeWidth=2;" parent="1" target="6" edge="1">
                    <mxGeometry relative="1" as="geometry">
                        <mxPoint x="320" y="340" as="sourcePoint"/>
                        <mxPoint x="600" y="340" as="targetPoint"/>
                    </mxGeometry>
                </mxCell>
                <mxCell id="16NEeApMlGZPxUQGinHy-22" value="Message" style="edgeLabel;html=1;align=center;verticalAlign=middle;resizable=0;points=[];" parent="16NEeApMlGZPxUQGinHy-21" vertex="1" connectable="0">
                    <mxGeometry x="-0.2429" y="1" relative="1" as="geometry">
                        <mxPoint x="45" as="offset"/>
                    </mxGeometry>
                </mxCell>
                <mxCell id="16NEeApMlGZPxUQGinHy-23" style="edgeStyle=none;html=1;fillColor=#fa6800;strokeColor=#C73500;strokeWidth=2;" parent="1" edge="1">
                    <mxGeometry relative="1" as="geometry">
                        <mxPoint x="729.5" y="370" as="sourcePoint"/>
                        <mxPoint x="319.5" y="370" as="targetPoint"/>
                    </mxGeometry>
                </mxCell>
                <mxCell id="16NEeApMlGZPxUQGinHy-24" value="Response" style="edgeLabel;html=1;align=center;verticalAlign=middle;resizable=0;points=[];" parent="16NEeApMlGZPxUQGinHy-23" vertex="1" connectable="0">
                    <mxGeometry x="-0.2429" y="1" relative="1" as="geometry">
                        <mxPoint x="-54" y="-1" as="offset"/>
                    </mxGeometry>
                </mxCell>
                <mxCell id="16NEeApMlGZPxUQGinHy-25" style="edgeStyle=none;html=1;exitX=0.983;exitY=0.72;exitDx=0;exitDy=0;exitPerimeter=0;fillColor=#fa6800;strokeColor=#C73500;strokeWidth=2;" parent="1" edge="1">
                    <mxGeometry relative="1" as="geometry">
                        <mxPoint x="320" y="410" as="sourcePoint"/>
                        <mxPoint x="460" y="410" as="targetPoint"/>
                    </mxGeometry>
                </mxCell>
                <mxCell id="16NEeApMlGZPxUQGinHy-26" value="&amp;nbsp;ID update out&amp;nbsp;&lt;div&gt;and mark&amp;nbsp;&lt;/div&gt;&lt;div&gt;as successful&lt;/div&gt;" style="edgeLabel;html=1;align=center;verticalAlign=middle;resizable=0;points=[];" parent="16NEeApMlGZPxUQGinHy-25" vertex="1" connectable="0">
                    <mxGeometry x="-0.2429" y="1" relative="1" as="geometry">
                        <mxPoint x="17" as="offset"/>
                    </mxGeometry>
                </mxCell>
            </root>
        </mxGraphModel>
    </diagram>
    <diagram id="CUUqtWsKcS_x1NNB_M8m" name="receive streaming messages">
        <mxGraphModel dx="746" dy="433" grid="0" gridSize="10" guides="1" tooltips="1" connect="1" arrows="1" fold="1" page="1" pageScale="1" pageWidth="850" pageHeight="1100" math="0" shadow="0">
            <root>
                <mxCell id="0"/>
                <mxCell id="1" parent="0"/>
                <mxCell id="zHeduXI_w00p3gi0jG0E-1" value="FastAPI" style="shape=umlLifeline;perimeter=lifelinePerimeter;whiteSpace=wrap;html=1;container=1;dropTarget=0;collapsible=0;recursiveResize=0;outlineConnect=0;portConstraint=eastwest;newEdgeStyle={&quot;curved&quot;:0,&quot;rounded&quot;:0};fillColor=#6d8764;fontColor=#ffffff;strokeColor=#3A5431;" parent="1" vertex="1">
                    <mxGeometry x="270" y="70" width="100" height="300" as="geometry"/>
                </mxCell>
                <mxCell id="zHeduXI_w00p3gi0jG0E-2" value="Database" style="shape=umlLifeline;perimeter=lifelinePerimeter;whiteSpace=wrap;html=1;container=1;dropTarget=0;collapsible=0;recursiveResize=0;outlineConnect=0;portConstraint=eastwest;newEdgeStyle={&quot;curved&quot;:0,&quot;rounded&quot;:0};fillColor=#1ba1e2;fontColor=#ffffff;strokeColor=#006EAF;" parent="1" vertex="1">
                    <mxGeometry x="410" y="70" width="100" height="300" as="geometry"/>
                </mxCell>
                <mxCell id="zHeduXI_w00p3gi0jG0E-3" value="Pubsub" style="shape=umlLifeline;perimeter=lifelinePerimeter;whiteSpace=wrap;html=1;container=1;dropTarget=0;collapsible=0;recursiveResize=0;outlineConnect=0;portConstraint=eastwest;newEdgeStyle={&quot;curved&quot;:0,&quot;rounded&quot;:0};fillColor=#fa6800;fontColor=#000000;strokeColor=#C73500;" parent="1" vertex="1">
                    <mxGeometry x="550" y="70" width="100" height="300" as="geometry"/>
                </mxCell>
                <mxCell id="zHeduXI_w00p3gi0jG0E-4" value="Deepseek" style="shape=umlLifeline;perimeter=lifelinePerimeter;whiteSpace=wrap;html=1;container=1;dropTarget=0;collapsible=0;recursiveResize=0;outlineConnect=0;portConstraint=eastwest;newEdgeStyle={&quot;curved&quot;:0,&quot;rounded&quot;:0};fillColor=#76608a;strokeColor=#432D57;fontColor=#ffffff;" parent="1" vertex="1">
                    <mxGeometry x="680" y="70" width="100" height="300" as="geometry"/>
                </mxCell>
                <mxCell id="zHeduXI_w00p3gi0jG0E-5" style="edgeStyle=none;html=1;fillColor=#008a00;strokeColor=#005700;strokeWidth=2;" parent="1" edge="1">
                    <mxGeometry relative="1" as="geometry">
                        <mxPoint x="140" y="154" as="sourcePoint"/>
                        <mxPoint x="319.5" y="154" as="targetPoint"/>
                    </mxGeometry>
                </mxCell>
                <mxCell id="zHeduXI_w00p3gi0jG0E-6" value="&amp;nbsp;call event type" style="edgeLabel;html=1;align=center;verticalAlign=middle;resizable=0;points=[];" parent="zHeduXI_w00p3gi0jG0E-5" vertex="1" connectable="0">
                    <mxGeometry x="0.0139" y="-3" relative="1" as="geometry">
                        <mxPoint y="-7" as="offset"/>
                    </mxGeometry>
                </mxCell>
                <mxCell id="zHeduXI_w00p3gi0jG0E-7" value="" style="verticalLabelPosition=bottom;html=1;verticalAlign=top;align=center;strokeColor=none;fillColor=#00BEF2;shape=mxgraph.azure.user;" parent="1" vertex="1">
                    <mxGeometry x="110" y="70" width="60" height="50" as="geometry"/>
                </mxCell>
                <mxCell id="zHeduXI_w00p3gi0jG0E-8" style="edgeStyle=none;html=1;exitX=0.983;exitY=0.72;exitDx=0;exitDy=0;exitPerimeter=0;fillColor=#008a00;strokeColor=#005700;strokeWidth=2;" parent="1" edge="1">
                    <mxGeometry relative="1" as="geometry">
                        <mxPoint x="320" y="180" as="sourcePoint"/>
                        <mxPoint x="460" y="180" as="targetPoint"/>
                    </mxGeometry>
                </mxCell>
                <mxCell id="zHeduXI_w00p3gi0jG0E-9" value="&amp;nbsp;Fetch completed&amp;nbsp;" style="edgeLabel;html=1;align=center;verticalAlign=middle;resizable=0;points=[];" parent="zHeduXI_w00p3gi0jG0E-8" vertex="1" connectable="0">
                    <mxGeometry x="-0.2429" y="1" relative="1" as="geometry">
                        <mxPoint x="17" as="offset"/>
                    </mxGeometry>
                </mxCell>
                <mxCell id="zHeduXI_w00p3gi0jG0E-10" style="edgeStyle=none;html=1;fillColor=#008a00;strokeColor=#005700;strokeWidth=2;" parent="1" edge="1">
                    <mxGeometry relative="1" as="geometry">
                        <mxPoint x="459.5" y="226" as="sourcePoint"/>
                        <mxPoint x="320" y="226" as="targetPoint"/>
                    </mxGeometry>
                </mxCell>
                <mxCell id="zHeduXI_w00p3gi0jG0E-11" value="&amp;nbsp;messages&amp;nbsp;" style="edgeLabel;html=1;align=center;verticalAlign=middle;resizable=0;points=[];" parent="zHeduXI_w00p3gi0jG0E-10" vertex="1" connectable="0">
                    <mxGeometry x="0.5125" y="1" relative="1" as="geometry">
                        <mxPoint x="36" as="offset"/>
                    </mxGeometry>
                </mxCell>
                <mxCell id="zHeduXI_w00p3gi0jG0E-14" style="edgeStyle=none;html=1;exitX=0.983;exitY=0.72;exitDx=0;exitDy=0;exitPerimeter=0;fillColor=#008a00;strokeColor=#005700;strokeWidth=2;" parent="1" edge="1">
                    <mxGeometry relative="1" as="geometry">
                        <mxPoint x="319" y="306" as="sourcePoint"/>
                        <mxPoint x="139" y="306" as="targetPoint"/>
                    </mxGeometry>
                </mxCell>
                <mxCell id="zHeduXI_w00p3gi0jG0E-15" value="&amp;nbsp;Streaming response&amp;nbsp;" style="edgeLabel;html=1;align=center;verticalAlign=middle;resizable=0;points=[];" parent="zHeduXI_w00p3gi0jG0E-14" vertex="1" connectable="0">
                    <mxGeometry x="-0.2429" y="1" relative="1" as="geometry">
                        <mxPoint x="-21" y="-3" as="offset"/>
                    </mxGeometry>
                </mxCell>
                <mxCell id="zHeduXI_w00p3gi0jG0E-16" style="edgeStyle=none;html=1;exitX=0.5;exitY=1;exitDx=0;exitDy=0;exitPerimeter=0;fillColor=#008a00;strokeColor=#005700;strokeWidth=2;" parent="1" source="zHeduXI_w00p3gi0jG0E-7" edge="1">
                    <mxGeometry relative="1" as="geometry">
                        <mxPoint x="150" y="170" as="sourcePoint"/>
                        <mxPoint x="140" y="370" as="targetPoint"/>
                    </mxGeometry>
                </mxCell>
                <mxCell id="MFj-Gvv6XWHm3SkNLSNS-1" value="" style="html=1;points=[[0,0,0,0,5],[0,1,0,0,-5],[1,0,0,0,5],[1,1,0,0,-5]];perimeter=orthogonalPerimeter;outlineConnect=0;targetShapes=umlLifeline;portConstraint=eastwest;newEdgeStyle={&quot;curved&quot;:0,&quot;rounded&quot;:0};" vertex="1" parent="1">
                    <mxGeometry x="389" y="247" width="10" height="41" as="geometry"/>
                </mxCell>
                <mxCell id="MFj-Gvv6XWHm3SkNLSNS-2" value="single massage" style="html=1;verticalAlign=bottom;endArrow=block;curved=0;rounded=0;entryX=0;entryY=0;entryDx=0;entryDy=5;" edge="1" parent="1">
                    <mxGeometry x="-1" y="-57" relative="1" as="geometry">
                        <mxPoint x="321" y="254" as="sourcePoint"/>
                        <mxPoint x="391" y="254" as="targetPoint"/>
                        <mxPoint x="-56" y="-48" as="offset"/>
                    </mxGeometry>
                </mxCell>
                <mxCell id="MFj-Gvv6XWHm3SkNLSNS-3" value="Yield" style="html=1;verticalAlign=bottom;endArrow=open;dashed=1;endSize=8;curved=0;rounded=0;exitX=0;exitY=1;exitDx=0;exitDy=-5;" edge="1" source="MFj-Gvv6XWHm3SkNLSNS-1" parent="1" target="zHeduXI_w00p3gi0jG0E-1">
                    <mxGeometry relative="1" as="geometry">
                        <mxPoint x="319" y="322" as="targetPoint"/>
                    </mxGeometry>
                </mxCell>
            </root>
        </mxGraphModel>
    </diagram>
</mxfile>